<svg xmlns="http://www.w3.org/2000/svg" xmlns:xlink="http://www.w3.org/1999/xlink" width="300" zoomAndPan="magnify" viewBox="0 0 224.87999 225" height="300" preserveAspectRatio="xMidYMid meet" version="1.0"><defs><clipPath id="2de9716d99"><path d="M 0 14.816406 L 30 14.816406 L 30 133 L 0 133 Z M 0 14.816406 " clip-rule="nonzero"/></clipPath><clipPath id="6dbd01aa7c"><path d="M 195 88 L 224.761719 88 L 224.761719 172 L 195 172 Z M 195 88 " clip-rule="nonzero"/></clipPath><clipPath id="d994cb09e0"><path d="M 195 19 L 224.761719 19 L 224.761719 74 L 195 74 Z M 195 19 " clip-rule="nonzero"/></clipPath><clipPath id="b75af82577"><path d="M 136 14.816406 L 167 14.816406 L 167 133 L 136 133 Z M 136 14.816406 " clip-rule="nonzero"/></clipPath><clipPath id="bd1b258b8f"><path d="M 0 14.816406 L 84 14.816406 L 84 103 L 0 103 Z M 0 14.816406 " clip-rule="nonzero"/></clipPath><clipPath id="b2f960f87b"><path d="M 83 14.816406 L 167 14.816406 L 167 103 L 83 103 Z M 83 14.816406 " clip-rule="nonzero"/></clipPath><clipPath id="8f93b6f050"><path d="M 141 122 L 224.761719 122 L 224.761719 210.464844 L 141 210.464844 Z M 141 122 " clip-rule="nonzero"/></clipPath></defs><g clip-path="url(#2de9716d99)"><path fill="#29b6f6" d="M 0.105469 14.816406 L 29.410156 34.382812 L 29.410156 132.207031 L 0.105469 112.640625 Z M 0.105469 14.816406 " fill-opacity="1" fill-rule="nonzero"/></g><g clip-path="url(#6dbd01aa7c)"><path fill="#0288d1" d="M 224.773438 88.183594 L 195.46875 107.75 L 195.46875 171.335938 L 224.773438 151.769531 Z M 224.773438 88.183594 " fill-opacity="1" fill-rule="nonzero"/></g><g clip-path="url(#d994cb09e0)"><path fill="#0288d1" d="M 224.773438 19.707031 L 195.46875 39.273438 L 195.46875 73.511719 L 224.773438 53.945312 Z M 224.773438 19.707031 " fill-opacity="1" fill-rule="nonzero"/></g><g clip-path="url(#b75af82577)"><path fill="#0288d1" d="M 166.164062 14.816406 L 136.859375 34.382812 L 136.859375 132.207031 L 166.164062 112.640625 Z M 166.164062 14.816406 " fill-opacity="1" fill-rule="nonzero"/></g><g clip-path="url(#bd1b258b8f)"><path fill="#29b6f6" d="M 0.105469 49.054688 L 83.136719 102.859375 L 83.136719 68.621094 L 0.105469 14.816406 Z M 0.105469 49.054688 " fill-opacity="1" fill-rule="nonzero"/></g><g clip-path="url(#b2f960f87b)"><path fill="#0288d1" d="M 166.164062 49.054688 L 83.136719 102.859375 L 83.136719 68.621094 L 166.164062 14.816406 Z M 166.164062 49.054688 " fill-opacity="1" fill-rule="nonzero"/></g><path fill="#0288d1" d="M 166.164062 117.53125 L 83.136719 171.335938 L 83.136719 137.097656 L 166.164062 83.292969 Z M 166.164062 117.53125 " fill-opacity="1" fill-rule="nonzero"/><g clip-path="url(#8f93b6f050)"><path fill="#0288d1" d="M 224.773438 156.660156 L 141.746094 210.464844 L 141.746094 176.226562 L 224.773438 122.421875 Z M 224.773438 156.660156 " fill-opacity="1" fill-rule="nonzero"/></g><path fill="#29b6f6" d="M 141.746094 175.074219 L 83.136719 137.097656 L 83.136719 171.335938 L 141.746094 209.3125 Z M 141.746094 175.074219 " fill-opacity="1" fill-rule="nonzero"/></svg>