<svg xmlns="http://www.w3.org/2000/svg" xmlns:xlink="http://www.w3.org/1999/xlink" width="300" zoomAndPan="magnify" viewBox="0 0 224.87999 225" height="300" preserveAspectRatio="xMidYMid meet" version="1.0"><defs><clipPath id="211df574c0"><path d="M 60 0.0585938 L 165 0.0585938 L 165 224.9375 L 60 224.9375 Z M 60 0.0585938 " clip-rule="nonzero"/></clipPath></defs><g clip-path="url(#211df574c0)"><path fill="#01ec64" d="M 131.691406 25.480469 C 122.300781 14.324219 114.214844 2.992188 112.5625 0.640625 C 112.523438 0.597656 112.476562 0.566406 112.425781 0.542969 C 112.375 0.519531 112.316406 0.507812 112.261719 0.507812 C 112.203125 0.507812 112.148438 0.519531 112.09375 0.542969 C 112.042969 0.566406 111.996094 0.597656 111.957031 0.640625 C 110.304688 2.992188 102.21875 14.324219 92.828125 25.480469 C 12.226562 128.421875 105.519531 197.890625 105.519531 197.890625 L 106.304688 198.414062 C 107 209.136719 108.738281 224.566406 108.738281 224.566406 L 115.695312 224.566406 C 115.695312 224.566406 117.433594 209.222656 118.128906 198.414062 L 118.910156 197.804688 C 119 197.894531 212.292969 128.421875 131.691406 25.480469 Z M 112.214844 196.324219 C 112.214844 196.324219 108.042969 192.75 106.914062 190.917969 L 106.914062 190.742188 L 111.957031 78.652344 C 111.957031 78.304688 112.476562 78.304688 112.476562 78.652344 L 117.519531 190.742188 L 117.519531 190.917969 C 116.390625 192.75 112.214844 196.324219 112.214844 196.324219 Z M 112.214844 196.324219 " fill-opacity="1" fill-rule="nonzero"/></g></svg>