<svg xmlns="http://www.w3.org/2000/svg" xmlns:xlink="http://www.w3.org/1999/xlink" width="300" zoomAndPan="magnify" viewBox="0 0 224.87999 225" height="300" preserveAspectRatio="xMidYMid meet" version="1.0"><defs><clipPath id="bbc124c6eb"><path d="M 0 44.613281 L 224.761719 44.613281 L 224.761719 180.292969 L 0 180.292969 Z M 0 44.613281 " clip-rule="nonzero"/></clipPath></defs><g clip-path="url(#bbc124c6eb)"><path fill="#000000" d="M 53.0625 80.023438 L 95.476562 80.023438 L 95.476562 83.390625 L 56.949219 83.390625 L 56.949219 108.746094 L 93.179688 108.746094 L 93.179688 112.113281 L 56.949219 112.113281 L 56.949219 139.953125 L 95.917969 139.953125 L 95.917969 143.320312 L 53.0625 143.320312 Z M 99.277344 80.023438 L 103.78125 80.023438 L 123.753906 107.859375 L 144.164062 80.023438 L 171.929688 44.664062 L 126.316406 110.785156 L 149.820312 143.320312 L 145.136719 143.320312 L 123.753906 113.707031 L 102.28125 143.320312 L 97.6875 143.320312 L 121.363281 110.785156 Z M 151.5 83.390625 L 151.5 80.023438 L 199.835938 80.023438 L 199.835938 83.390625 L 177.566406 83.390625 L 177.566406 143.320312 L 173.679688 143.320312 L 173.679688 83.390625 Z M 0 80.023438 L 4.859375 80.023438 L 71.875 180.234375 L 44.183594 143.324219 L 4.066406 84.8125 L 3.890625 143.324219 L 0.00390625 143.324219 L 0.00390625 80.023438 Z M 199.441406 138.9375 C 198.648438 138.9375 198.050781 138.320312 198.050781 137.523438 C 198.050781 136.730469 198.648438 136.117188 199.441406 136.117188 C 200.246094 136.117188 200.832031 136.730469 200.832031 137.523438 C 200.832031 138.320312 200.246094 138.9375 199.441406 138.9375 Z M 203.261719 135.222656 L 205.34375 135.222656 C 205.371094 136.351562 206.195312 137.109375 207.402344 137.109375 C 208.757812 137.109375 209.519531 136.296875 209.519531 134.773438 L 209.519531 125.121094 L 211.640625 125.121094 L 211.640625 134.78125 C 211.640625 137.523438 210.050781 139.105469 207.425781 139.105469 C 204.957031 139.105469 203.261719 137.574219 203.261719 135.222656 Z M 214.414062 135.101562 L 216.511719 135.101562 C 216.6875 136.402344 217.957031 137.222656 219.785156 137.222656 C 221.484375 137.222656 222.730469 136.34375 222.730469 135.132812 C 222.730469 134.09375 221.9375 133.464844 220.132812 133.039062 L 218.375 132.613281 C 215.90625 132.039062 214.78125 130.84375 214.78125 128.839844 C 214.78125 126.40625 216.769531 124.792969 219.746094 124.792969 C 222.515625 124.792969 224.539062 126.40625 224.660156 128.707031 L 222.601562 128.707031 C 222.402344 127.445312 221.304688 126.660156 219.714844 126.660156 C 218.042969 126.660156 216.925781 127.46875 216.925781 128.699219 C 216.925781 129.671875 217.644531 130.230469 219.425781 130.648438 L 220.925781 131.015625 C 223.726562 131.667969 224.878906 132.804688 224.878906 134.855469 C 224.878906 137.46875 222.855469 139.105469 219.621094 139.105469 C 216.597656 139.105469 214.5625 137.546875 214.414062 135.101562 Z M 214.414062 135.101562 " fill-opacity="1" fill-rule="nonzero"/></g></svg>