<svg xmlns="http://www.w3.org/2000/svg" xmlns:xlink="http://www.w3.org/1999/xlink" width="300" zoomAndPan="magnify" viewBox="0 0 224.87999 225" height="300" preserveAspectRatio="xMidYMid meet" version="1.0"><defs><clipPath id="be05945cee"><path d="M 12.789062 0.0585938 L 212 0.0585938 L 212 224.9375 L 12.789062 224.9375 Z M 12.789062 0.0585938 " clip-rule="nonzero"/></clipPath></defs><g clip-path="url(#be05945cee)"><path fill="#539e43" d="M 112.488281 224.910156 C 109.394531 224.910156 106.507812 224.085938 103.835938 222.648438 L 76.433594 206.375 C 72.3125 204.113281 74.371094 203.292969 75.609375 202.878906 C 81.171875 201.023438 82.199219 200.609375 87.96875 197.316406 C 88.589844 196.902344 89.414062 197.113281 90.03125 197.527344 L 111.039062 210.082031 C 111.863281 210.496094 112.898438 210.496094 113.519531 210.082031 L 195.71875 162.519531 C 196.542969 162.105469 196.953125 161.285156 196.953125 160.25 L 196.953125 65.316406 C 196.953125 64.289062 196.542969 63.464844 195.71875 63.054688 L 113.519531 15.6875 C 112.695312 15.277344 111.664062 15.277344 111.039062 15.6875 L 28.84375 63.054688 C 28.015625 63.464844 27.605469 64.496094 27.605469 65.316406 L 27.605469 160.25 C 27.605469 161.074219 28.015625 162.109375 28.839844 162.519531 L 51.296875 175.488281 C 63.453125 181.667969 71.074219 174.464844 71.074219 167.253906 L 71.074219 73.554688 C 71.074219 72.320312 72.105469 71.085938 73.546875 71.085938 L 84.054688 71.085938 C 85.292969 71.085938 86.527344 72.113281 86.527344 73.554688 L 86.527344 167.253906 C 86.527344 183.523438 77.667969 192.996094 62.214844 192.996094 C 57.476562 192.996094 53.769531 192.996094 43.261719 187.84375 L 21.628906 175.488281 C 16.273438 172.40625 12.976562 166.640625 12.976562 160.460938 L 12.976562 65.527344 C 12.976562 59.347656 16.273438 53.582031 21.628906 50.492188 L 103.835938 2.921875 C 108.980469 0.0390625 115.992188 0.0390625 121.140625 2.921875 L 203.34375 50.492188 C 208.699219 53.582031 211.996094 59.347656 211.996094 65.523438 L 211.996094 160.457031 C 211.996094 166.636719 208.699219 172.402344 203.34375 175.484375 L 121.140625 223.058594 C 118.464844 224.292969 115.371094 224.90625 112.488281 224.90625 Z M 137.832031 159.636719 C 101.773438 159.636719 94.355469 143.15625 94.355469 129.152344 C 94.355469 127.917969 95.382812 126.679688 96.828125 126.679688 L 107.542969 126.679688 C 108.777344 126.679688 109.804688 127.503906 109.804688 128.742188 C 111.453125 139.65625 116.195312 145.011719 138.03125 145.011719 C 155.339844 145.011719 162.753906 141.09375 162.753906 131.832031 C 162.753906 126.480469 160.695312 122.5625 133.710938 119.890625 C 111.25 117.621094 97.242188 112.679688 97.242188 94.769531 C 97.242188 78.085938 111.25 68.199219 134.738281 68.199219 C 161.105469 68.199219 174.089844 77.261719 175.738281 97.027344 C 175.738281 97.652344 175.527344 98.265625 175.117188 98.886719 C 174.703125 99.296875 174.089844 99.710938 173.46875 99.710938 L 162.753906 99.710938 C 161.730469 99.710938 160.695312 98.886719 160.492188 97.851562 C 158.019531 86.53125 151.628906 82.824219 134.738281 82.824219 C 115.78125 82.824219 113.519531 89.414062 113.519531 94.355469 C 113.519531 100.324219 116.195312 102.179688 141.742188 105.476562 C 167.085938 108.769531 179.035156 113.503906 179.035156 131.210938 C 178.824219 149.332031 163.992188 159.636719 137.832031 159.636719 Z M 137.832031 159.636719 " fill-opacity="1" fill-rule="nonzero"/></g></svg>