<svg xmlns="http://www.w3.org/2000/svg" xmlns:xlink="http://www.w3.org/1999/xlink" width="300" zoomAndPan="magnify" viewBox="0 0 224.87999 225" height="300" preserveAspectRatio="xMidYMid meet" version="1.0"><defs><clipPath id="7c01483005"><path d="M 0 12 L 224.761719 12 L 224.761719 213 L 0 213 Z M 0 12 " clip-rule="nonzero"/></clipPath></defs><g clip-path="url(#7c01483005)"><path fill="#00d8ff" d="M 184.816406 77.230469 C 182.421875 76.414062 180.011719 75.652344 177.582031 74.953125 C 177.988281 73.289062 178.363281 71.644531 178.699219 70.027344 C 184.175781 43.472656 180.59375 22.082031 168.363281 15.039062 C 156.636719 8.285156 137.460938 15.328125 118.09375 32.160156 C 116.183594 33.824219 114.316406 35.53125 112.496094 37.289062 C 111.273438 36.121094 110.035156 34.976562 108.769531 33.855469 C 88.472656 15.855469 68.125 8.269531 55.910156 15.332031 C 44.191406 22.105469 40.722656 42.214844 45.65625 67.378906 C 46.144531 69.871094 46.699219 72.351562 47.316406 74.816406 C 44.4375 75.632812 41.65625 76.503906 38.996094 77.429688 C 15.199219 85.714844 0 98.699219 0 112.171875 C 0 126.082031 16.316406 140.035156 41.101562 148.496094 C 43.113281 149.179688 45.140625 149.8125 47.179688 150.394531 C 46.519531 153.050781 45.929688 155.722656 45.414062 158.40625 C 40.714844 183.136719 44.386719 202.769531 56.070312 209.5 C 68.136719 216.449219 88.394531 209.308594 108.113281 192.089844 C 109.714844 190.691406 111.277344 189.25 112.804688 187.773438 C 114.777344 189.675781 116.804688 191.519531 118.882812 193.308594 C 137.988281 209.726562 156.855469 216.355469 168.527344 209.605469 C 180.582031 202.636719 184.503906 181.542969 179.414062 155.882812 C 179.015625 153.871094 178.566406 151.871094 178.066406 149.882812 C 179.488281 149.460938 180.886719 149.027344 182.246094 148.578125 C 208.015625 140.050781 224.78125 126.269531 224.78125 112.171875 C 224.78125 98.652344 209.09375 85.578125 184.816406 77.230469 Z M 179.226562 139.476562 C 177.996094 139.882812 176.738281 140.273438 175.453125 140.65625 C 172.605469 131.660156 168.769531 122.097656 164.070312 112.21875 C 168.550781 102.570312 172.242188 93.128906 175.007812 84.195312 C 177.308594 84.859375 179.539062 85.558594 181.691406 86.300781 C 202.492188 93.449219 215.179688 104.023438 215.179688 112.171875 C 215.179688 120.847656 201.476562 132.113281 179.226562 139.476562 Z M 169.996094 157.746094 C 172.246094 169.09375 172.566406 179.351562 171.074219 187.371094 C 169.738281 194.578125 167.046875 199.382812 163.714844 201.308594 C 156.632812 205.402344 141.484375 200.082031 125.144531 186.039062 C 123.214844 184.378906 121.328125 182.660156 119.492188 180.894531 C 125.828125 173.976562 132.15625 165.933594 138.335938 157 C 149.203125 156.039062 159.46875 154.464844 168.777344 152.316406 C 169.226562 154.113281 169.632812 155.925781 169.996094 157.746094 Z M 76.632812 200.601562 C 69.710938 203.042969 64.199219 203.113281 60.867188 201.191406 C 53.777344 197.109375 50.828125 181.34375 54.851562 160.195312 C 55.328125 157.699219 55.875 155.214844 56.492188 152.746094 C 65.699219 154.777344 75.890625 156.242188 86.78125 157.125 C 93.003906 165.863281 99.515625 173.898438 106.078125 180.929688 C 104.683594 182.277344 103.257812 183.59375 101.796875 184.871094 C 93.074219 192.484375 84.335938 197.882812 76.632812 200.601562 Z M 44.210938 139.421875 C 33.25 135.679688 24.199219 130.820312 17.992188 125.511719 C 12.417969 120.746094 9.601562 116.011719 9.601562 112.171875 C 9.601562 103.996094 21.804688 93.570312 42.15625 86.484375 C 44.628906 85.625 47.214844 84.8125 49.894531 84.050781 C 52.707031 93.191406 56.398438 102.742188 60.851562 112.402344 C 56.339844 122.207031 52.597656 131.914062 49.757812 141.160156 C 47.894531 140.625 46.042969 140.046875 44.210938 139.421875 Z M 55.078125 65.539062 C 50.855469 43.976562 53.660156 27.714844 60.71875 23.632812 C 68.238281 19.285156 84.867188 25.484375 102.394531 41.023438 C 103.539062 42.039062 104.664062 43.078125 105.769531 44.132812 C 99.238281 51.136719 92.785156 59.109375 86.621094 67.796875 C 76.046875 68.777344 65.929688 70.347656 56.625 72.453125 C 56.050781 70.160156 55.535156 67.855469 55.078125 65.539062 Z M 152.039062 89.449219 C 149.84375 85.65625 147.5625 81.914062 145.203125 78.222656 C 152.375 79.128906 159.246094 80.328125 165.699219 81.800781 C 163.761719 88 161.347656 94.484375 158.507812 101.128906 C 156.429688 97.191406 154.273438 93.296875 152.039062 89.449219 Z M 112.5 50.988281 C 116.929688 55.777344 121.363281 61.128906 125.726562 66.933594 C 116.875 66.515625 108.011719 66.515625 99.160156 66.929688 C 103.527344 61.175781 108 55.835938 112.5 50.988281 Z M 72.703125 89.515625 C 70.5 93.332031 68.382812 97.203125 66.359375 101.121094 C 63.5625 94.5 61.171875 87.984375 59.21875 81.695312 C 65.628906 80.265625 72.46875 79.09375 79.597656 78.203125 C 77.210938 81.917969 74.914062 85.691406 72.703125 89.511719 Z M 79.800781 146.820312 C 72.4375 146 65.496094 144.886719 59.085938 143.492188 C 61.070312 137.09375 63.515625 130.441406 66.371094 123.675781 C 68.402344 127.597656 70.527344 131.46875 72.742188 135.292969 C 75.019531 139.21875 77.378906 143.066406 79.800781 146.820312 Z M 112.765625 174.027344 C 108.210938 169.125 103.671875 163.699219 99.238281 157.867188 C 103.542969 158.035156 107.929688 158.121094 112.390625 158.121094 C 116.972656 158.121094 121.5 158.015625 125.960938 157.820312 C 121.582031 163.757812 117.164062 169.191406 112.765625 174.027344 Z M 158.597656 123.332031 C 161.601562 130.171875 164.132812 136.785156 166.144531 143.078125 C 159.628906 144.5625 152.589844 145.757812 145.175781 146.648438 C 147.554688 142.886719 149.851562 139.078125 152.078125 135.226562 C 154.339844 131.308594 156.511719 127.34375 158.597656 123.332031 Z M 143.761719 130.433594 C 140.355469 136.339844 136.757812 142.136719 132.976562 147.808594 C 126.125 148.292969 119.257812 148.535156 112.390625 148.53125 C 105.394531 148.53125 98.589844 148.3125 92.039062 147.890625 C 88.160156 142.230469 84.492188 136.421875 81.050781 130.488281 L 81.054688 130.488281 C 77.628906 124.582031 74.429688 118.546875 71.460938 112.398438 C 74.421875 106.25 77.609375 100.214844 81.023438 94.304688 C 84.433594 88.390625 88.070312 82.613281 91.921875 76.976562 C 98.609375 76.472656 105.460938 76.207031 112.390625 76.207031 C 119.351562 76.207031 126.214844 76.472656 132.898438 76.980469 C 136.710938 82.609375 140.324219 88.371094 143.726562 94.253906 C 147.152344 100.148438 150.382812 106.15625 153.417969 112.261719 C 150.414062 118.433594 147.195312 124.492188 143.761719 130.433594 Z M 163.570312 23.347656 C 171.09375 27.679688 174.023438 45.164062 169.292969 68.089844 C 168.992188 69.550781 168.652344 71.042969 168.285156 72.554688 C 158.957031 70.402344 148.832031 68.804688 138.226562 67.8125 C 132.050781 59.027344 125.652344 51.042969 119.226562 44.128906 C 120.910156 42.507812 122.632812 40.929688 124.398438 39.394531 C 140.992188 24.972656 156.503906 19.277344 163.570312 23.347656 Z M 112.390625 92.125 C 123.476562 92.125 132.464844 101.101562 132.464844 112.171875 C 132.464844 123.242188 123.476562 132.214844 112.390625 132.214844 C 101.304688 132.214844 92.320312 123.242188 92.320312 112.171875 C 92.320312 101.101562 101.304688 92.125 112.390625 92.125 Z M 112.390625 92.125 " fill-opacity="1" fill-rule="nonzero"/></g></svg>