<svg xmlns="http://www.w3.org/2000/svg" xmlns:xlink="http://www.w3.org/1999/xlink" width="1080" zoomAndPan="magnify" viewBox="0 0 810 809.999993" height="1080" preserveAspectRatio="xMidYMid meet" version="1.0"><defs><clipPath id="63e3f59dff"><path d="M 8 131.117188 L 802 131.117188 L 802 231 L 8 231 Z M 8 131.117188 " clip-rule="nonzero"/></clipPath><clipPath id="81e6bd1a0b"><path d="M 8 579 L 802 579 L 802 678.617188 L 8 678.617188 Z M 8 579 " clip-rule="nonzero"/></clipPath></defs><g clip-path="url(#63e3f59dff)"><path fill="#000000" d="M 752.148438 131.355469 L 57.851562 131.355469 C 30.5 131.355469 8.257812 153.585938 8.257812 180.921875 C 8.257812 208.261719 30.5 230.492188 57.851562 230.492188 L 752.148438 230.492188 C 779.488281 230.492188 801.742188 208.261719 801.742188 180.921875 C 801.742188 153.585938 779.488281 131.355469 752.148438 131.355469 Z M 752.148438 131.355469 " fill-opacity="1" fill-rule="nonzero"/></g><path fill="#000000" d="M 752.148438 355.300781 L 57.851562 355.300781 C 30.5 355.300781 8.257812 377.53125 8.257812 404.867188 C 8.257812 432.207031 30.5 454.4375 57.851562 454.4375 L 752.148438 454.4375 C 779.488281 454.4375 801.742188 432.207031 801.742188 404.867188 C 801.742188 377.53125 779.488281 355.300781 752.148438 355.300781 Z M 752.148438 355.300781 " fill-opacity="1" fill-rule="nonzero"/><g clip-path="url(#81e6bd1a0b)"><path fill="#000000" d="M 752.148438 579.246094 L 57.851562 579.246094 C 30.5 579.246094 8.257812 601.476562 8.257812 628.8125 C 8.257812 656.152344 30.5 678.382812 57.851562 678.382812 L 752.148438 678.382812 C 779.488281 678.382812 801.742188 656.152344 801.742188 628.8125 C 801.742188 601.476562 779.488281 579.246094 752.148438 579.246094 Z M 752.148438 579.246094 " fill-opacity="1" fill-rule="nonzero"/></g></svg>