<svg xmlns="http://www.w3.org/2000/svg" xmlns:xlink="http://www.w3.org/1999/xlink" width="300" zoomAndPan="magnify" viewBox="0 0 224.87999 225" height="300" preserveAspectRatio="xMidYMid meet" version="1.0"><defs><clipPath id="39ceed581c"><path d="M 6.949219 0.0585938 L 217.589844 0.0585938 L 217.589844 224.9375 L 6.949219 224.9375 Z M 6.949219 0.0585938 " clip-rule="nonzero"/></clipPath><clipPath id="e37e62e86c"><path d="M 110 0.0585938 L 217.589844 0.0585938 L 217.589844 224.9375 L 110 224.9375 Z M 110 0.0585938 " clip-rule="nonzero"/></clipPath></defs><g clip-path="url(#39ceed581c)"><path fill="#e23237" d="M 6.949219 37.75 L 110.820312 0.722656 L 217.421875 37.175781 L 200.195312 174.757812 L 110.820312 224.277344 L 22.894531 175.402344 Z M 6.949219 37.75 " fill-opacity="1" fill-rule="nonzero"/></g><g clip-path="url(#e37e62e86c)"><path fill="#b52e31" d="M 217.421875 37.175781 L 110.820312 0.722656 L 110.820312 224.277344 L 200.195312 174.757812 Z M 217.421875 37.175781 " fill-opacity="1" fill-rule="nonzero"/></g><path fill="#ffffff" d="M 110.980469 26.851562 L 46.253906 171.042969 L 70.40625 170.554688 L 83.449219 137.972656 L 141.339844 137.972656 L 155.511719 170.804688 L 178.542969 171.292969 Z M 111.140625 73.140625 L 133.039062 118.949219 L 92.042969 118.949219 L 111.203125 73.140625 Z M 111.140625 73.140625 " fill-opacity="1" fill-rule="nonzero"/></svg>