<svg xmlns="http://www.w3.org/2000/svg" xmlns:xlink="http://www.w3.org/1999/xlink" width="300" zoomAndPan="magnify" viewBox="0 0 224.87999 225" height="300" preserveAspectRatio="xMidYMid meet" version="1.0"><defs><clipPath id="97694b975c"><path d="M 14.054688 0.0585938 L 211.199219 0.0585938 L 211.199219 224.9375 L 14.054688 224.9375 Z M 14.054688 0.0585938 " clip-rule="nonzero"/></clipPath></defs><g clip-path="url(#97694b975c)"><path fill="#e44d26" d="M 31.953125 201.828125 L 14 0.863281 L 211.253906 0.863281 L 193.289062 201.800781 L 112.5 224.140625 Z M 31.953125 201.828125 " fill-opacity="1" fill-rule="nonzero"/></g><path fill="#f16529" d="M 177.902344 189.003906 L 193.261719 17.296875 L 112.628906 17.296875 L 112.628906 207.066406 Z M 177.902344 189.003906 " fill-opacity="1" fill-rule="nonzero"/><path fill="#ebebeb" d="M 112.542969 41.941406 L 50.703125 41.941406 L 57.363281 116.476562 L 112.628906 116.476562 L 112.628906 91.832031 L 79.953125 91.832031 L 77.695312 66.59375 L 112.628906 66.59375 L 112.628906 41.941406 Z M 112.628906 155.761719 L 112.523438 155.789062 L 85.019531 148.378906 L 83.273438 128.722656 L 58.46875 128.722656 L 61.929688 167.421875 L 112.515625 181.375 L 112.628906 181.339844 Z M 112.628906 155.761719 " fill-opacity="1" fill-rule="nonzero"/><path fill="#ffffff" d="M 112.542969 116.476562 L 142.953125 116.476562 L 140.15625 148.433594 L 112.613281 155.851562 L 112.613281 181.496094 L 163.242188 167.492188 L 170.023438 91.816406 L 112.628906 91.816406 Z M 173.8125 48.558594 L 174.398438 41.941406 L 112.53125 41.941406 L 112.53125 66.585938 L 172.175781 66.585938 L 172.664062 61.046875 Z M 173.8125 48.558594 " fill-opacity="1" fill-rule="nonzero"/></svg>