<svg xmlns="http://www.w3.org/2000/svg" xmlns:xlink="http://www.w3.org/1999/xlink" width="300" zoomAndPan="magnify" viewBox="0 0 224.87999 225" height="300" preserveAspectRatio="xMidYMid meet" version="1.0"><defs><clipPath id="36e08c5eb1"><path d="M 0 0.0585938 L 224.761719 0.0585938 L 224.761719 224.9375 L 0 224.9375 Z M 0 0.0585938 " clip-rule="nonzero"/></clipPath></defs><g clip-path="url(#36e08c5eb1)"><path fill="#ffd600" d="M 0 0.0585938 L 224.878906 0.0585938 L 224.878906 224.941406 L 0 224.941406 Z M 0 0.0585938 " fill-opacity="1" fill-rule="nonzero"/></g><path fill="#000001" d="M 147.035156 168.390625 C 151.355469 175.410156 156.054688 182.136719 166.003906 182.136719 C 174.363281 182.136719 178.75 177.984375 178.75 172.238281 C 178.75 165.359375 174.214844 162.917969 165.019531 158.914062 L 159.976562 156.765625 C 145.429688 150.59375 135.753906 142.859375 135.753906 126.523438 C 135.753906 111.46875 147.277344 100.011719 165.285156 100.011719 C 178.109375 100.011719 187.324219 104.453125 193.972656 116.085938 L 178.265625 126.125 C 174.8125 119.953125 171.078125 117.523438 165.285156 117.523438 C 159.378906 117.523438 155.636719 121.25 155.636719 126.125 C 155.636719 132.144531 159.382812 134.582031 168.035156 138.3125 L 173.078125 140.460938 C 190.222656 147.761719 199.894531 155.222656 199.894531 171.988281 C 199.894531 190.050781 185.625 199.953125 166.472656 199.953125 C 147.738281 199.953125 137.101562 190.550781 131.179688 178.914062 Z M 74.660156 168.902344 C 77.820312 174.5625 82.625 178.914062 89.535156 178.914062 C 96.140625 178.914062 99.945312 176.304688 99.945312 166.152344 L 99.945312 100.007812 L 120.765625 100.007812 L 120.765625 169.351562 C 120.765625 190.382812 108.566406 199.953125 90.75 199.953125 C 74.652344 199.953125 63.035156 189.046875 58.300781 178.914062 Z M 74.660156 168.902344 " fill-opacity="1" fill-rule="nonzero"/></svg>