<svg xmlns="http://www.w3.org/2000/svg" xmlns:xlink="http://www.w3.org/1999/xlink" width="300" zoomAndPan="magnify" viewBox="0 0 224.87999 225" height="300" preserveAspectRatio="xMidYMid meet" version="1.0"><defs><clipPath id="59cef45cc7"><path d="M 6 0.0585938 L 220.523438 0.0585938 L 220.523438 224 L 6 224 Z M 6 0.0585938 " clip-rule="nonzero"/></clipPath></defs><path fill="#000000" d="M 205.671875 138.675781 C 205.671875 138.691406 205.667969 138.695312 205.65625 138.695312 C 205.644531 138.695312 205.636719 138.691406 205.636719 138.675781 C 205.636719 138.664062 205.644531 138.660156 205.65625 138.660156 C 205.667969 138.660156 205.671875 138.664062 205.671875 138.675781 Z M 205.671875 138.675781 " fill-opacity="1" fill-rule="nonzero"/><path fill="#32648d" d="M 178.09375 136.910156 L 178.113281 136.929688 L 178.113281 136.9375 L 178.085938 136.949219 C 176.734375 137.441406 175.621094 137.644531 174.679688 138.0625 C 173.722656 138.445312 172.949219 139.140625 172.492188 140.035156 L 172.484375 140.050781 C 171.90625 141.121094 171.40625 143.015625 171.554688 146.242188 C 171.933594 146.519531 172.398438 146.734375 172.875 146.882812 L 172.910156 146.890625 C 174.484375 147.375 177.117188 147.691406 180.058594 147.644531 C 185.921875 147.578125 193.140625 146.195312 196.972656 144.390625 C 200.277344 142.820312 203.105469 140.925781 205.628906 138.675781 C 192.824219 141.351562 185.59375 140.636719 181.15625 138.789062 C 180.003906 138.285156 178.988281 137.664062 178.09375 136.910156 Z M 178.09375 136.910156 " fill-opacity="1" fill-rule="nonzero"/><path fill="#32648d" d="M 164.964844 38.632812 L 165.023438 38.71875 L 165.085938 38.792969 Z M 164.964844 38.632812 " fill-opacity="1" fill-rule="nonzero"/><path fill="#32648d" d="M 115.996094 179.398438 C 115.984375 179.164062 115.996094 178.921875 115.984375 178.691406 C 115.984375 178.597656 115.976562 178.53125 115.976562 178.441406 Z M 115.996094 179.398438 " fill-opacity="1" fill-rule="nonzero"/><path fill="#32648d" d="M 106.179688 138.390625 C 105.640625 138.121094 105.007812 137.925781 104.328125 137.832031 L 104.300781 137.832031 L 104.300781 137.8125 L 104.105469 137.8125 C 103.621094 137.859375 102.914062 138.027344 101.535156 139.558594 C 98.335938 143.183594 97.21875 145.460938 94.574219 147.589844 C 91.933594 149.707031 88.507812 150.839844 81.660156 152.261719 C 79.492188 152.707031 78.246094 153.203125 77.425781 153.601562 C 77.699219 153.824219 77.667969 153.878906 78.070312 154.09375 C 79.074219 154.652344 80.359375 155.144531 81.402344 155.414062 C 84.339844 156.15625 89.179688 157.019531 94.222656 156.15625 C 99.265625 155.28125 104.511719 152.839844 108.988281 146.492188 C 109.761719 145.394531 109.84375 143.777344 109.210938 142.042969 C 108.578125 140.304688 107.164062 138.808594 106.179688 138.390625 Z M 106.179688 138.390625 " fill-opacity="1" fill-rule="nonzero"/><path fill="#32648d" d="M 143.75 14.015625 L 143.222656 14.121094 C 143.398438 14.082031 143.59375 14.0625 143.769531 14.027344 C 143.761719 14.027344 143.761719 14.015625 143.75 14.015625 Z M 143.75 14.015625 " fill-opacity="1" fill-rule="nonzero"/><path fill="#32648d" d="M 169.636719 64.179688 C 163.394531 64.261719 159.894531 65.886719 158.050781 68.015625 C 155.445312 71.035156 155.207031 76.332031 156.824219 82.855469 C 158.433594 89.390625 161.753906 96.695312 164.882812 102.761719 C 166.445312 105.800781 167.960938 108.53125 169.179688 110.753906 C 170.410156 112.984375 171.3125 114.5625 171.859375 115.910156 C 172.363281 117.15625 172.929688 118.253906 173.5 119.273438 C 175.917969 114.117188 176.34375 109.050781 176.105469 103.773438 C 175.789062 97.242188 174.28125 90.558594 174.503906 83.796875 C 174.753906 75.886719 176.300781 70.738281 176.429688 64.625 C 174.390625 64.347656 172.027344 64.179688 169.636719 64.179688 Z M 170.789062 68.878906 L 170.78125 68.953125 C 170.78125 68.984375 170.78125 69.011719 170.78125 69.046875 C 170.78125 69.476562 170.660156 69.882812 170.445312 70.21875 L 170.457031 70.210938 C 170.167969 70.738281 169.832031 71.203125 169.441406 71.601562 C 168.53125 72.617188 167.3125 73.324219 165.933594 73.5625 L 165.894531 73.574219 C 165.699219 73.601562 165.476562 73.609375 165.246094 73.609375 C 164.074219 73.609375 162.992188 73.238281 162.109375 72.605469 L 162.128906 72.617188 C 161.671875 72.300781 161.273438 71.9375 160.945312 71.527344 L 160.9375 71.519531 C 160.648438 71.203125 160.445312 70.796875 160.359375 70.359375 L 160.359375 70.339844 C 160.359375 70.292969 160.351562 70.246094 160.351562 70.199219 C 160.351562 69.800781 160.5 69.429688 160.75 69.148438 C 161.046875 68.804688 161.402344 68.527344 161.8125 68.324219 L 161.832031 68.3125 C 162.714844 67.8125 163.90625 67.441406 165.253906 67.234375 C 165.757812 67.160156 166.257812 67.125 166.722656 67.113281 L 166.722656 67.144531 L 167.179688 67.144531 C 167.785156 67.160156 168.34375 67.226562 168.835938 67.347656 C 169.328125 67.457031 169.757812 67.625 170.101562 67.859375 C 170.445312 68.089844 170.707031 68.445312 170.789062 68.878906 Z M 170.789062 68.878906 " fill-opacity="1" fill-rule="nonzero"/><path fill="#32648d" d="M 67.238281 105.132812 C 67.238281 103.457031 67.367188 101.824219 67.609375 100.214844 L 67.59375 100.390625 C 68.542969 93.523438 68.671875 87.101562 68.558594 82.03125 C 68.449219 77.085938 68.09375 73.796875 68.09375 71.742188 C 68.09375 71.714844 68.09375 71.6875 68.09375 71.660156 C 68.09375 71.632812 68.09375 71.59375 68.09375 71.566406 L 68.09375 71.519531 L 68.085938 71.464844 L 68.085938 71.453125 C 68.085938 71.4375 68.085938 71.425781 68.085938 71.410156 C 68.085938 60.40625 70.019531 49.859375 73.527344 40.074219 C 76.105469 33.160156 79.941406 26.144531 85.679688 20.457031 C 80.03125 18.582031 70.019531 15.71875 59.171875 15.179688 C 58.128906 15.125 56.910156 15.085938 55.691406 15.085938 L 55.683594 15.085938 L 55.683594 15.09375 C 54.519531 15.09375 53.347656 15.132812 52.191406 15.199219 C 42.90625 15.738281 34.125 18.460938 27.851562 25.1875 C 21.5625 31.914062 17.421875 42.945312 18.324219 61.203125 C 18.5 64.660156 19.988281 74.34375 22.539062 85.847656 C 25.097656 97.351562 28.699219 110.890625 33.035156 122.851562 C 37.378906 134.8125 42.648438 145.21875 47.652344 150.144531 C 50.175781 152.605469 52.359375 153.601562 54.34375 153.515625 C 56.332031 153.425781 58.734375 152.261719 61.664062 148.703125 C 67.425781 141.695312 72.867188 135.5 78.488281 129.476562 L 78.300781 129.671875 C 71.507812 123.679688 67.238281 114.917969 67.238281 105.132812 Z M 67.238281 105.132812 " fill-opacity="1" fill-rule="nonzero"/><path fill="#32648d" d="M 116.730469 14.628906 L 116.730469 14.613281 C 105.863281 14.640625 98.074219 17.957031 92.15625 22.929688 C 86.0625 28.066406 81.976562 35.101562 79.289062 42.304688 C 76.097656 50.851562 75.007812 59.125 74.570312 64.734375 L 74.691406 64.660156 C 77.976562 62.804688 82.285156 60.945312 86.898438 59.867188 C 91.515625 58.789062 96.484375 58.464844 100.988281 60.230469 C 105.492188 61.996094 109.210938 66.148438 110.5625 72.449219 C 117.027344 102.714844 108.550781 113.96875 105.425781 122.460938 C 104.429688 124.90625 103.398438 128.046875 102.53125 131.253906 L 102.382812 131.875 C 102.773438 131.78125 103.171875 131.671875 103.5625 131.632812 C 105.769531 131.449219 107.5 132.191406 108.523438 132.636719 C 111.667969 133.957031 113.828125 136.726562 114.992188 139.886719 C 115.296875 140.710938 115.511719 141.605469 115.640625 142.523438 C 115.761719 142.839844 115.828125 143.210938 115.828125 143.59375 C 115.828125 143.628906 115.828125 143.667969 115.828125 143.703125 C 115.679688 148.351562 115.585938 153.804688 115.585938 159.289062 C 115.585938 165.785156 115.714844 172.25 115.957031 178.691406 C 116.171875 183.578125 116.480469 187.910156 116.859375 191.320312 C 117.261719 194.796875 117.820312 197.425781 118.171875 198.316406 C 119.34375 201.289062 121.066406 205.183594 124.175781 207.832031 C 127.28125 210.472656 131.738281 212.238281 139.878906 210.472656 C 146.941406 208.9375 151.296875 206.808594 154.210938 203.753906 C 157.121094 200.695312 158.851562 196.441406 159.960938 189.925781 C 161.625 180.167969 164.964844 151.871094 165.375 146.546875 C 165.1875 142.535156 165.773438 139.449219 167.050781 137.097656 C 168.351562 134.679688 170.382812 133.203125 172.121094 132.40625 C 172.996094 132.003906 173.816406 131.734375 174.484375 131.539062 C 173.664062 130.359375 172.929688 129.375 172.167969 128.417969 L 172.25 128.519531 C 169.839844 125.582031 167.785156 122.210938 166.230469 118.578125 L 166.128906 118.308594 C 165.1875 116.367188 164.398438 114.898438 163.570312 113.457031 L 163.765625 113.820312 C 162.546875 111.589844 161.003906 108.800781 159.382812 105.671875 C 156.144531 99.398438 152.628906 91.796875 150.792969 84.390625 C 148.972656 76.992188 148.710938 69.335938 153.382812 63.9375 C 157.511719 59.140625 164.78125 57.152344 175.675781 58.269531 C 175.359375 57.292969 175.164062 56.484375 174.613281 55.183594 C 171.964844 48.957031 168.769531 43.585938 164.984375 38.71875 C 155.746094 26.804688 140.8125 15.011719 117.753906 14.628906 Z M 116.730469 14.628906 " fill-opacity="1" fill-rule="nonzero"/><path fill="#32648d" d="M 74.441406 72.261719 L 74.460938 72.253906 L 74.488281 72.226562 Z M 74.441406 72.261719 " fill-opacity="1" fill-rule="nonzero"/><path fill="#32648d" d="M 88.117188 65.972656 L 88.210938 65.960938 L 88.285156 65.933594 Z M 88.117188 65.972656 " fill-opacity="1" fill-rule="nonzero"/><path fill="#32648d" d="M 99.648438 120.277344 C 103.378906 110.113281 110.71875 102.695312 104.542969 73.757812 C 103.527344 69.019531 101.527344 67.105469 98.773438 66.027344 C 97.433594 65.535156 95.878906 65.246094 94.25 65.246094 C 94.148438 65.246094 94.035156 65.246094 93.933594 65.246094 L 93.953125 65.246094 C 91.96875 65.265625 90.054688 65.515625 88.210938 65.960938 C 84.304688 66.949219 80.859375 68.339844 77.660156 70.125 C 76.460938 70.785156 75.425781 71.472656 74.460938 72.246094 L 74.28125 72.410156 C 74.339844 73.769531 74.597656 77.058594 74.710938 81.898438 C 74.820312 87.195312 74.691406 93.953125 73.675781 101.265625 C 71.480469 117.15625 82.890625 130.3125 96.289062 130.332031 C 97.078125 127.070312 98.363281 123.761719 99.648438 120.277344 Z M 91.730469 74.101562 C 91.292969 73.65625 90.9375 73.15625 90.648438 72.605469 L 90.628906 72.570312 C 90.390625 72.179688 90.25 71.707031 90.25 71.195312 C 90.25 71.101562 90.257812 71.007812 90.269531 70.914062 L 90.269531 70.925781 C 90.40625 69.921875 91.226562 69.402344 92.015625 69.113281 C 92.753906 68.871094 93.570312 68.730469 94.445312 68.730469 C 94.574219 68.730469 94.707031 68.730469 94.855469 68.742188 L 94.847656 68.703125 C 95.328125 68.703125 95.851562 68.75 96.371094 68.824219 C 97.777344 69.019531 99.03125 69.402344 99.980469 69.957031 C 100.457031 70.21875 100.867188 70.542969 101.191406 70.933594 L 101.199219 70.945312 C 101.515625 71.304688 101.703125 71.78125 101.703125 72.308594 C 101.703125 72.382812 101.703125 72.457031 101.695312 72.53125 L 101.695312 72.523438 C 101.601562 73.082031 101.351562 73.5625 101.003906 73.953125 C 100.625 74.417969 100.195312 74.820312 99.710938 75.152344 L 99.695312 75.164062 C 98.753906 75.851562 97.570312 76.257812 96.296875 76.257812 C 96.046875 76.257812 95.792969 76.242188 95.554688 76.210938 L 95.582031 76.210938 C 94.035156 75.953125 92.714844 75.191406 91.730469 74.101562 Z M 91.730469 74.101562 " fill-opacity="1" fill-rule="nonzero"/><path fill="#32648d" d="M 77.472656 70.21875 C 77.539062 70.183594 77.605469 70.164062 77.660156 70.125 C 77.667969 70.125 77.679688 70.117188 77.6875 70.105469 Z M 77.472656 70.21875 " fill-opacity="1" fill-rule="nonzero"/><path fill="#32648d" d="M 169.945312 34.925781 C 173.972656 40.082031 177.460938 45.957031 180.152344 52.257812 L 180.347656 52.765625 C 181.359375 55.21875 182.039062 57.292969 182.421875 58.902344 C 182.617188 59.707031 182.746094 60.386719 182.792969 61.09375 C 182.8125 61.445312 182.832031 61.808594 182.683594 62.433594 C 182.683594 62.460938 182.636719 62.523438 182.625 62.550781 C 182.90625 70.691406 180.90625 76.210938 180.671875 83.980469 C 180.484375 89.613281 181.910156 96.230469 182.261719 103.449219 C 182.597656 110.234375 181.789062 117.683594 177.425781 125 C 177.796875 125.445312 178.121094 125.890625 178.476562 126.335938 C 190.003906 107.984375 198.3125 87.679688 202.742188 70.367188 C 205.117188 61.046875 206.371094 52.601562 206.484375 45.910156 C 206.578125 39.21875 205.339844 34.367188 203.777344 32.34375 C 191.4375 16.394531 174.753906 12.335938 160.761719 12.222656 L 160.761719 12.234375 L 159.421875 12.234375 C 154.023438 12.316406 148.8125 12.941406 143.777344 14.027344 C 155.207031 19.15625 163.859375 27.054688 169.945312 34.925781 Z M 169.945312 34.925781 " fill-opacity="1" fill-rule="nonzero"/><g clip-path="url(#59cef45cc7)"><path fill="#000000" d="M 118.265625 2.457031 L 118.171875 2.457031 C 107.34375 2.273438 98.046875 4.929688 90.539062 9.351562 C 83.148438 6.761719 67.824219 2.289062 51.664062 3.183594 C 40.414062 3.804688 28.132812 7.261719 19.03125 16.972656 C 9.960938 26.683594 5.167969 41.710938 6.171875 62.152344 C 6.453125 67.792969 8.042969 76.992188 10.675781 88.90625 C 13.316406 100.820312 17.023438 114.765625 21.644531 127.488281 C 26.269531 140.21875 31.332031 151.648438 39.25 159.417969 C 43.203125 163.3125 48.648438 166.582031 55.058594 166.3125 C 59.5625 166.128906 63.628906 164.128906 67.144531 161.183594 C 68.859375 163.460938 70.679688 164.453125 72.347656 165.375 C 74.441406 166.535156 76.476562 167.324219 78.589844 167.847656 C 82.386719 168.804688 88.882812 170.085938 96.492188 168.777344 C 99.089844 168.339844 101.816406 167.484375 104.53125 166.265625 C 104.632812 169.332031 104.753906 172.335938 104.867188 175.375 C 105.25 185 105.480469 193.894531 108.335938 201.691406 C 108.792969 202.964844 110.058594 209.523438 115.019531 215.3125 C 119.976562 221.113281 129.710938 224.726562 140.78125 222.328125 C 148.597656 220.636719 158.527344 217.589844 165.132812 208.09375 C 171.65625 198.707031 174.597656 185.242188 175.183594 163.40625 C 175.332031 162.222656 175.507812 161.222656 175.683594 160.28125 L 177.238281 160.421875 L 177.425781 160.421875 C 185.761719 160.800781 194.804688 159.605469 202.363281 156.054688 C 209.050781 152.921875 214.113281 149.753906 217.808594 144.132812 C 218.726562 142.738281 219.734375 141.054688 220.011719 138.15625 C 220.292969 135.257812 218.644531 130.722656 215.910156 128.632812 C 210.4375 124.433594 207.003906 126.03125 203.320312 126.800781 C 200.035156 127.574219 196.238281 128.054688 192.347656 128.15625 L 192.273438 128.15625 C 202.902344 110.066406 210.523438 90.847656 214.867188 73.84375 C 217.445312 63.808594 218.886719 54.550781 219 46.457031 C 219.117188 38.363281 218.46875 31.199219 213.667969 25 C 198.675781 5.636719 177.601562 0.28125 161.289062 0.0976562 C 160.789062 0.0859375 160.277344 0.078125 159.773438 0.0859375 L 159.773438 0.0585938 C 150.898438 0.132812 142.355469 1.472656 134.269531 3.859375 L 133.886719 3.992188 C 129.21875 3.117188 123.792969 2.558594 118.265625 2.457031 Z M 140.308594 8.375 C 146.003906 6.972656 152.554688 6.128906 159.289062 6.042969 L 159.347656 6.042969 L 159.355469 6.007812 C 174.78125 5.859375 194.480469 10.234375 208.632812 28.515625 C 211.816406 32.621094 212.765625 38.625 212.652344 46.019531 C 212.53125 53.410156 211.183594 62.253906 208.707031 71.949219 C 203.90625 90.71875 194.84375 112.601562 182.078125 132.238281 C 182.496094 132.542969 182.980469 132.8125 183.480469 133.019531 L 183.527344 133.035156 C 186.191406 134.152344 192.265625 135.109375 204.390625 132.589844 C 207.441406 131.941406 209.675781 131.503906 211.992188 133.289062 C 213.035156 134.179688 213.683594 135.5 213.683594 136.976562 C 213.683594 137.070312 213.683594 137.164062 213.675781 137.253906 L 213.675781 137.246094 C 213.535156 138.425781 213.117188 139.484375 212.476562 140.367188 C 210.128906 143.925781 205.507812 147.300781 199.589844 150.078125 C 194.339844 152.550781 186.8125 153.84375 180.140625 153.917969 C 176.792969 153.953125 173.710938 153.695312 171.089844 152.867188 L 170.921875 152.800781 C 169.90625 162.652344 167.582031 182.101562 166.0625 190.976562 C 164.855469 198.132812 162.734375 203.816406 158.675781 208.074219 C 154.628906 212.328125 148.90625 214.894531 141.203125 216.566406 C 131.664062 218.640625 124.703125 216.410156 120.21875 212.589844 C 115.742188 208.78125 113.695312 203.726562 112.460938 200.628906 C 111.613281 198.492188 111.175781 195.722656 110.746094 192.027344 C 110.320312 188.328125 110.011719 183.800781 109.796875 178.699219 C 109.59375 173.515625 109.480469 167.417969 109.480469 161.296875 C 109.480469 159.277344 109.5 157.273438 109.519531 155.253906 C 105.675781 158.824219 100.820312 161.332031 95.421875 162.289062 L 95.253906 162.316406 C 88.917969 163.40625 83.269531 162.335938 79.894531 161.480469 C 78.097656 161.027344 76.535156 160.382812 75.0625 159.585938 C 73.519531 158.75 72.050781 157.792969 71.0625 155.925781 C 70.671875 155.207031 70.441406 154.34375 70.441406 153.433594 C 70.441406 153.070312 70.476562 152.707031 70.550781 152.375 C 70.886719 151.128906 71.585938 150.070312 72.542969 149.328125 L 72.550781 149.316406 C 74.375 147.820312 76.777344 146.984375 80.414062 146.222656 C 87.019531 144.847656 89.328125 143.910156 90.734375 142.785156 C 91.925781 141.816406 93.28125 139.867188 95.664062 137.003906 C 95.65625 136.921875 95.644531 136.78125 95.636719 136.652344 L 95.636719 136.625 C 91.132812 136.492188 86.9375 135.277344 83.269531 133.222656 L 83.410156 133.296875 C 82.035156 134.765625 74.988281 142.292969 66.410156 152.738281 C 62.800781 157.105469 58.808594 159.613281 54.601562 159.789062 C 50.398438 159.964844 46.589844 157.828125 43.355469 154.660156 C 36.886719 148.3125 31.730469 137.394531 27.238281 125.054688 C 22.753906 112.714844 19.105469 98.96875 16.507812 87.261719 C 13.90625 75.554688 12.378906 66.113281 12.15625 61.558594 C 11.1875 42.210938 15.664062 29.171875 23.339844 20.949219 C 31.023438 12.726562 41.558594 9.613281 51.820312 9.019531 C 70.253906 7.949219 87.746094 14.445312 91.292969 15.839844 C 98.121094 11.15625 106.914062 8.238281 117.882812 8.421875 C 123.410156 8.507812 128.722656 9.242188 133.804688 10.550781 L 133.339844 10.449219 L 133.523438 10.367188 C 135.300781 9.695312 137.574219 9.019531 139.898438 8.460938 Z M 140.308594 8.375 " fill-opacity="1" fill-rule="nonzero"/></g></svg>