<svg xmlns="http://www.w3.org/2000/svg" xmlns:xlink="http://www.w3.org/1999/xlink" width="300" zoomAndPan="magnify" viewBox="0 0 224.87999 225" height="300" preserveAspectRatio="xMidYMid meet" version="1.0"><defs><clipPath id="51abae384d"><path d="M 0 0.0585938 L 224.761719 0.0585938 L 224.761719 224.9375 L 0 224.9375 Z M 0 0.0585938 " clip-rule="nonzero"/></clipPath></defs><g clip-path="url(#51abae384d)"><path fill="#007acc" d="M 0 224.941406 L 224.878906 224.941406 L 224.878906 0.0585938 L 0 0.0585938 Z M 0 224.941406 " fill-opacity="1" fill-rule="nonzero"/></g><path fill="#ffffff" d="M 49.71875 113.238281 L 49.648438 122.453125 L 78.917969 122.453125 L 78.917969 205.625 L 99.621094 205.625 L 99.621094 122.453125 L 128.894531 122.453125 L 128.894531 113.421875 C 128.894531 108.425781 128.785156 104.242188 128.644531 104.136719 C 128.535156 103.996094 110.722656 103.925781 89.125 103.960938 L 49.824219 104.066406 Z M 49.71875 113.238281 " fill-opacity="1" fill-rule="nonzero"/><path fill="#ffffff" d="M 181.457031 103.8125 C 187.167969 105.234375 191.527344 107.773438 195.523438 111.910156 C 197.585938 114.125 200.660156 118.15625 200.90625 119.125 C 200.976562 119.414062 191.199219 125.976562 185.269531 129.65625 C 185.058594 129.796875 184.207031 128.867188 183.242188 127.441406 C 180.351562 123.226562 177.3125 121.40625 172.675781 121.089844 C 165.859375 120.625 161.464844 124.191406 161.5 130.15625 C 161.5 131.90625 161.753906 132.941406 162.46875 134.363281 C 163.96875 137.472656 166.753906 139.328125 175.496094 143.113281 C 191.597656 150.035156 198.484375 154.601562 202.769531 161.105469 C 207.546875 168.351562 208.621094 179.910156 205.371094 188.511719 C 201.804688 197.867188 192.949219 204.21875 180.492188 206.324219 C 176.636719 207.003906 167.5 206.898438 163.355469 206.148438 C 154.324219 204.542969 145.757812 200.082031 140.480469 194.230469 C 138.40625 191.945312 134.375 185.980469 134.621094 185.550781 C 134.734375 185.410156 135.65625 184.839844 136.695312 184.234375 C 137.695312 183.664062 141.480469 181.484375 145.046875 179.410156 L 151.503906 175.667969 L 152.867188 177.664062 C 154.753906 180.550781 158.902344 184.515625 161.394531 185.839844 C 168.570312 189.617188 178.417969 189.082031 183.277344 184.734375 C 185.351562 182.835938 186.203125 180.878906 186.203125 177.988281 C 186.203125 175.378906 185.886719 174.238281 184.523438 172.277344 C 182.777344 169.773438 179.210938 167.664062 169.074219 163.28125 C 157.46875 158.285156 152.46875 155.175781 147.902344 150.246094 C 145.257812 147.390625 142.765625 142.824219 141.726562 139.003906 C 140.867188 135.832031 140.65625 127.871094 141.332031 124.65625 C 143.730469 113.449219 152.1875 105.628906 164.390625 103.3125 C 168.351562 102.566406 177.566406 102.847656 181.457031 103.8125 Z M 181.457031 103.8125 " fill-opacity="1" fill-rule="nonzero"/></svg>