<svg width="170" height="48" viewBox="0 0 170 48" fill="none" xmlns="http://www.w3.org/2000/svg">
<g clip-path="url(#clip0_52_657)">
<path d="M48.0786 24.0037C48.0786 37.2589 37.3125 48.0074 24.0356 48.0074C10.7586 48.0074 0 37.2589 0 24.0037C0 10.7485 10.7661 0 24.043 0C37.32 0 48.0861 10.7485 48.0861 24.0037H48.0786Z" fill="#F0B16D"/>
<path fill-rule="evenodd" clip-rule="evenodd" d="M18.0006 22.6946C17.0096 21.0508 15.2811 20.0689 14.2082 18.4919C13.709 17.763 13.1949 17.0415 12.9193 16.1935C12.5169 14.9513 12.7628 13.8429 13.858 13.114C14.9011 12.4222 15.907 12.9801 16.6222 13.7239C18.0602 15.2339 19.3715 16.8704 20.7275 18.4548C21.1969 19.0052 21.6141 19.6151 22.5231 20.1135C22.2921 18.3878 21.5918 17.0712 21.1671 15.6802C20.802 14.4826 20.3401 13.3074 20.0495 12.0949C19.6397 10.3395 20.2134 9.20138 21.5471 8.82202C22.9627 8.42035 24.0206 9.13444 24.6092 10.8973C25.2574 12.8313 25.9056 14.7727 26.5762 16.7067C26.7997 17.3539 27.0456 18.001 27.515 18.5515C28.1334 18.1126 27.9993 17.5175 28.0067 16.9968C28.0514 15.1372 28.0365 13.2776 28.0812 11.4255C28.1259 9.74439 28.6773 8.98567 29.8545 8.88153C31.7469 8.71789 32.3951 9.10468 32.6484 11.0759C33.0359 14.0215 33.1402 16.9968 33.5276 19.9424C33.8629 22.5161 34.444 25.0601 34.3397 27.6784C34.2354 30.1033 33.5052 32.1488 31.1732 33.2944C30.6144 33.5696 30.4058 34.068 30.1748 34.5738C29.1839 36.7235 27.7608 38.5384 25.8013 39.8773C22.2549 42.2874 18.537 42.2874 14.849 40.2865C7.07057 36.0763 3.0547 26.6296 5.41653 18.2985C7.94973 9.33528 15.9442 3.41431 25.1084 3.97963C30.9944 4.34411 35.7106 6.94011 39.4657 11.6858C45.1207 18.8416 44.6811 29.8504 37.8564 36.7458C35.1816 39.4459 31.963 41.2014 28.2675 42.0717C27.9546 42.1461 27.6267 42.1833 27.2989 42.213C26.755 42.2651 26.2111 42.213 26.1515 41.5287C26.0994 40.9336 26.5613 40.77 27.053 40.6807C29.6086 40.227 31.9332 39.2376 34.1162 37.8392C42.3193 32.5877 44.316 20.2772 38.2438 12.6454C33.4382 6.60538 27.2318 4.42593 19.8036 6.06238C10.1626 8.18976 4.26169 18.5515 7.09292 28.1024C8.52343 32.9373 11.3547 36.7458 15.9517 39.0368C20.7573 41.432 26.2335 39.4013 28.4537 34.5068C28.8337 33.6737 28.3718 33.577 27.7757 33.4134C25.4363 32.7811 23.3799 31.643 21.711 29.8801C20.8169 28.9355 20.1389 27.8643 20.6828 26.4957C21.2341 25.127 22.4486 24.7774 23.7673 24.7923C24.5794 24.7997 25.0041 24.5022 25.4139 23.8327C26.1292 22.6649 27.2691 22.1368 28.64 22.3822C29.9737 22.6203 30.9273 23.3715 31.3148 24.7253C31.7394 26.2353 31.6128 27.7602 31.4265 29.2851C31.3669 29.7834 31.1509 30.2669 31.4712 30.8694C32.5218 30.133 32.6633 29.0396 32.7751 27.961C32.939 26.332 32.7974 24.6956 32.4771 23.1112C31.7246 19.3697 31.4191 15.5835 31.2179 11.7825C31.203 11.5073 31.1732 11.2246 31.1211 10.9494C31.0614 10.6221 30.9497 10.3023 30.5548 10.2502C30.1301 10.1981 30.0184 10.5329 29.8992 10.8378C29.6384 11.4998 29.6309 12.1991 29.6235 12.8983C29.5937 14.8918 29.7725 16.9001 29.2063 18.8564C28.9902 19.6151 28.789 20.4854 27.8577 20.6342C26.9189 20.783 26.4346 20.0019 26.0472 19.3325C25.1978 17.882 24.6912 16.2827 24.1771 14.6909C23.8567 13.6719 23.5736 12.6379 23.2085 11.6337C23.0074 11.061 22.8882 10.1461 21.9941 10.4659C21.1373 10.7634 21.562 11.5742 21.7184 12.1693C21.9047 12.8834 22.1804 13.5826 22.4411 14.2744C23.0595 15.9703 23.7599 17.644 24.1175 19.4292C24.1995 19.8383 24.2591 20.2548 24.2814 20.664C24.3112 21.2293 24.3112 21.8169 23.7152 22.1219C23.1415 22.4194 22.6125 22.1814 22.1431 21.8615C20.8616 20.9838 19.9005 19.7788 18.9244 18.5961C17.9484 17.4134 17.032 16.1786 15.8995 15.1372C15.5642 14.8248 15.1693 14.386 14.6925 14.6984C14.171 15.048 14.387 15.6356 14.5957 16.0968C15.2439 17.5175 16.4136 18.5515 17.4343 19.6895C18.3582 20.7309 19.4534 21.6161 20.2357 22.7839C20.6157 23.3492 20.9212 23.9666 20.4593 24.584C19.9824 25.2088 19.2821 25.2683 18.5594 25.0303C16.8532 24.4724 15.4674 23.3567 13.9922 22.3897C13.3365 21.9582 12.6511 21.5566 11.9581 21.1772C11.7793 21.0805 11.4739 21.0508 11.3174 21.14C11.0343 21.3111 11.1237 21.6384 11.228 21.8913C11.5633 22.7095 12.2487 23.1707 12.9789 23.617C16.2348 25.6179 19.4609 27.6635 21.5098 31.048C22.4784 32.6472 23.2681 34.3209 23.7524 36.1284C23.894 36.6491 24.043 37.1846 23.3873 37.4152C22.6497 37.6681 22.3964 37.1251 22.24 36.5449C20.8467 31.2116 17.1587 27.8271 12.5542 25.2311C11.4813 24.6286 10.5202 23.9145 9.90179 22.8285C9.30574 21.7872 9.11948 20.6788 10.0284 19.7342C10.8853 18.8564 11.8985 19.3325 12.7405 19.7788C13.9251 20.4036 15.0054 21.2218 16.1454 21.9359C16.6893 22.2781 17.1289 22.8137 17.8441 22.836C17.941 22.8732 18.0378 22.9104 18.1347 22.955C18.09 22.8583 18.0453 22.769 18.008 22.6723L18.0006 22.6946ZM30.1227 27.3213C30.1227 26.0866 30.145 24.8667 28.9082 24.1154C28.1483 23.6542 27.4256 23.8253 26.9413 24.5022C26.3974 25.2683 27.2691 25.4097 27.6491 25.6923C28.4761 26.2948 28.6922 27.0907 28.4761 28.0205C28.2675 28.9429 27.5746 29.4041 26.6954 29.5603C25.5033 29.7686 24.6316 29.0024 24.423 27.3288C24.2814 26.1609 23.6854 26.2056 22.9031 26.4882C21.9345 26.8304 21.6961 27.723 22.4188 28.6156C23.9238 30.4975 25.9131 31.6058 28.2824 32.0596C29.1094 32.2158 29.4968 31.7992 29.6011 31.048C29.7799 29.8132 29.9513 28.5784 30.1227 27.3436V27.3213ZM27.053 27.5296C27.0158 27.1205 26.7699 26.875 26.3974 26.7634C26.0919 26.6667 25.9727 26.8825 25.9727 27.1279C25.9727 27.5147 26.0845 27.8792 26.4942 27.9908C26.8221 28.08 26.9785 27.8346 27.053 27.5296Z" fill="white"/>
<g opacity="0.9">
<path d="M67.4799 23.5499H59.8431L58.3827 27.0683H54.4861L61.8175 10.6517H65.5726L72.9263 27.0683H68.9328L67.4725 23.5499H67.4799ZM66.2804 20.6638L63.6727 14.3784L61.065 20.6638H66.2804ZM64.7306 5.93579H68.6795L64.4252 9.31283H61.5567L64.7306 5.93579Z" fill="black"/>
<path d="M89.7273 10.6519V27.0684H86.6055L78.4099 17.1009V27.0684H74.6548V10.6519H77.8064L85.9797 20.6193V10.6519H89.7348H89.7273Z" fill="black"/>
<path d="M104.74 18.6033H108.22V25.2607C107.326 25.9301 106.29 26.4508 105.12 26.8079C103.951 27.1649 102.766 27.3434 101.574 27.3434C99.8676 27.3434 98.3328 26.979 96.9693 26.2574C95.6059 25.5285 94.5404 24.5243 93.7656 23.23C92.9907 21.9432 92.6033 20.4852 92.6033 18.8562C92.6033 17.2272 92.9907 15.7693 93.7656 14.4824C94.5404 13.1956 95.6208 12.184 96.9991 11.455C98.3775 10.7261 99.9272 10.3616 101.648 10.3616C103.086 10.3616 104.398 10.607 105.575 11.0905C106.752 11.574 107.735 12.2807 108.533 13.203L106.089 15.4569C104.912 14.2221 103.496 13.6047 101.835 13.6047C100.784 13.6047 99.8527 13.8279 99.0406 14.2593C98.2285 14.6982 97.5877 15.3155 97.1407 16.1115C96.6862 16.9074 96.4552 17.8223 96.4552 18.8562C96.4552 19.8902 96.6787 20.7828 97.1407 21.5787C97.5952 22.3746 98.221 22.9994 99.0331 23.4457C99.8378 23.892 100.762 24.1152 101.797 24.1152C102.893 24.1152 103.876 23.8771 104.755 23.4085V18.6033H104.74Z" fill="black"/>
<path d="M124.469 24.0187V27.0684H111.736V10.6519H124.164V13.7016H115.521V17.2646H123.158V20.2176H115.521V24.0187H124.469Z" fill="black"/>
<path d="M127.502 10.6519H131.309V23.974H139.557V27.0684H127.509V10.6519H127.502Z" fill="black"/>
<path d="M154.421 24.0187V27.0684H141.688V10.6519H154.115V13.7016H145.473V17.2646H153.109V20.2176H145.473V24.0187H154.421Z" fill="black"/>
<path d="M159.085 26.8229C157.87 26.4733 156.894 26.0121 156.157 25.4542L157.446 22.5904C158.154 23.1037 158.988 23.5202 159.957 23.8326C160.925 24.1451 161.901 24.3013 162.87 24.3013C163.95 24.3013 164.747 24.1451 165.269 23.8178C165.783 23.4979 166.044 23.0739 166.044 22.5384C166.044 22.1441 165.895 21.8243 165.582 21.5639C165.276 21.3036 164.881 21.0953 164.405 20.9391C163.928 20.7829 163.279 20.6118 162.467 20.4259C161.216 20.1283 160.188 19.8308 159.39 19.5333C158.593 19.2357 157.908 18.7597 157.334 18.1051C156.76 17.4505 156.477 16.5728 156.477 15.4793C156.477 14.5272 156.738 13.6644 157.252 12.8908C157.766 12.1172 158.548 11.4998 159.591 11.0535C160.635 10.6072 161.909 10.3691 163.406 10.3691C164.457 10.3691 165.485 10.4956 166.483 10.7411C167.482 10.994 168.361 11.351 169.113 11.8196L167.936 14.7057C166.416 13.8429 164.896 13.4189 163.376 13.4189C162.311 13.4189 161.521 13.59 161.015 13.9321C160.508 14.2743 160.247 14.728 160.247 15.2934C160.247 15.8587 160.538 16.2752 161.126 16.5505C161.715 16.8257 162.609 17.0935 163.816 17.3612C165.068 17.6588 166.096 17.9563 166.893 18.2538C167.69 18.5514 168.376 19.02 168.949 19.6597C169.523 20.2994 169.806 21.1697 169.806 22.2631C169.806 23.2004 169.545 24.0558 169.024 24.8294C168.495 25.603 167.713 26.2204 166.662 26.6667C165.612 27.1204 164.337 27.3436 162.832 27.3436C161.536 27.3436 160.277 27.165 159.062 26.8154L159.085 26.8229Z" fill="black"/>
</g>
<g opacity="0.9">
<path d="M56.6543 41.2608C55.6559 40.7252 54.8662 39.9814 54.2999 39.0292C53.7262 38.0771 53.4431 36.9986 53.4431 35.801C53.4431 34.6034 53.7262 33.5248 54.2999 32.5727C54.8736 31.6206 55.6559 30.8768 56.6543 30.3412C57.6527 29.8056 58.7777 29.5378 60.022 29.5378C61.0725 29.5378 62.0262 29.7238 62.8756 30.0883C63.7249 30.4602 64.4402 30.9883 65.0139 31.6801L63.2108 33.3389C62.3913 32.3942 61.3705 31.9181 60.1635 31.9181C59.411 31.9181 58.7405 32.0818 58.1519 32.4091C57.5633 32.7364 57.1013 33.1975 56.7735 33.7852C56.4457 34.3728 56.2818 35.0423 56.2818 35.7935C56.2818 36.5448 56.4457 37.2143 56.7735 37.8019C57.1013 38.3895 57.5633 38.8507 58.1519 39.178C58.7405 39.5053 59.411 39.6689 60.1635 39.6689C61.378 39.6689 62.3913 39.1929 63.2108 38.2333L65.0139 39.8921C64.4327 40.5987 63.7175 41.1343 62.8681 41.4988C62.0113 41.8707 61.0576 42.0492 60.0071 42.0492C58.7703 42.0492 57.6527 41.7815 56.6543 41.2459V41.2608Z" fill="black"/>
<path d="M74.6474 39.2674H69.0147L67.9418 41.8634H65.0659L70.475 29.7537H73.2467L78.6707 41.8634H75.7277L74.6548 39.2674H74.6474ZM73.7607 37.14L71.8385 32.5059L69.9162 37.14H73.7607Z" fill="black"/>
<path d="M79.9375 29.7461H82.7464V39.5722H88.8335V41.8558H79.945V29.7461H79.9375Z" fill="black"/>
<path d="M90.4055 29.7461H93.2144V39.5722H99.3015V41.8558H90.413V29.7461H90.4055Z" fill="black"/>
<path d="M110.261 39.6094V41.8558H100.866V29.7461H110.038V31.9925H103.66V34.6257H109.293V36.8051H103.66V39.6094H110.261Z" fill="black"/>
<path d="M112.474 41.6103C111.789 41.3054 111.222 40.8665 110.783 40.3012L112.34 38.4341C112.996 39.3193 113.748 39.7656 114.59 39.7656C115.737 39.7656 116.304 39.0962 116.304 37.7572V31.9925H112.042V29.7461H119.098V37.601C119.098 39.0887 118.725 40.2045 117.987 40.9483C117.25 41.6922 116.162 42.0641 114.732 42.0641C113.912 42.0641 113.159 41.9079 112.467 41.6029L112.474 41.6103Z" fill="black"/>
<path d="M131.272 39.6094V41.8558H121.877V29.7461H131.041V31.9925H124.663V34.6257H130.296V36.8051H124.663V39.6094H131.264H131.272Z" fill="black"/>
<path d="M141.233 41.8634L138.894 38.4863H136.316V41.8634H133.507V29.7537H138.76C139.833 29.7537 140.764 29.9322 141.561 30.2892C142.351 30.6463 142.962 31.1521 143.387 31.8141C143.819 32.4687 144.027 33.2497 144.027 34.1498C144.027 35.0498 143.811 35.8234 143.379 36.478C142.947 37.1326 142.329 37.6309 141.531 37.9731L144.251 41.8634H141.233ZM140.526 32.5803C140.086 32.2158 139.445 32.0373 138.603 32.0373H136.316V36.2548H138.603C139.445 36.2548 140.086 36.0689 140.526 35.7044C140.965 35.3325 141.181 34.8192 141.181 34.1498C141.181 33.4803 140.965 32.9447 140.526 32.5803Z" fill="black"/>
<path d="M148.714 41.2532C147.701 40.7102 146.911 39.9664 146.337 39.0142C145.763 38.0621 145.48 36.991 145.48 35.8009C145.48 34.6107 145.763 33.5396 146.337 32.5949C146.911 31.6428 147.701 30.899 148.714 30.356C149.727 29.8129 150.86 29.5452 152.119 29.5452C153.378 29.5452 154.51 29.8129 155.516 30.356C156.522 30.899 157.312 31.6428 157.893 32.5949C158.474 33.547 158.757 34.6182 158.757 35.8009C158.757 36.9836 158.467 38.0621 157.893 39.0142C157.319 39.9664 156.522 40.7102 155.516 41.2532C154.51 41.7962 153.378 42.064 152.119 42.064C150.86 42.064 149.727 41.7962 148.714 41.2532ZM154.063 39.1853C154.644 38.858 155.099 38.3969 155.427 37.8092C155.755 37.2216 155.919 36.5521 155.919 35.8009C155.919 35.0496 155.755 34.3801 155.427 33.7925C155.099 33.2049 154.644 32.7437 154.063 32.4164C153.49 32.0891 152.841 31.9255 152.126 31.9255C151.411 31.9255 150.763 32.0891 150.182 32.4164C149.6 32.7437 149.153 33.2049 148.818 33.7925C148.49 34.3801 148.326 35.0496 148.326 35.8009C148.326 36.5521 148.49 37.2216 148.818 37.8092C149.146 38.3969 149.6 38.858 150.182 39.1853C150.763 39.5126 151.403 39.6763 152.126 39.6763C152.849 39.6763 153.49 39.5126 154.063 39.1853Z" fill="black"/>
<path d="M162.073 41.6772C161.178 41.4169 160.456 41.0821 159.912 40.6656L160.866 38.5531C161.387 38.9324 162.005 39.2374 162.721 39.468C163.436 39.6986 164.151 39.8176 164.866 39.8176C165.664 39.8176 166.252 39.6986 166.632 39.4606C167.012 39.2225 167.206 38.9101 167.206 38.5159C167.206 38.2258 167.094 37.9878 166.871 37.8018C166.647 37.6084 166.357 37.4596 166.006 37.3406C165.656 37.229 165.179 37.1026 164.576 36.9612C163.652 36.7455 162.892 36.5224 162.303 36.3067C161.715 36.091 161.208 35.7339 160.791 35.2504C160.366 34.7669 160.158 34.1198 160.158 33.3164C160.158 32.6098 160.351 31.9775 160.731 31.4048C161.111 30.832 161.685 30.3783 162.453 30.0435C163.22 29.7088 164.159 29.5452 165.269 29.5452C166.044 29.5452 166.796 29.6344 167.541 29.8204C168.279 30.0063 168.927 30.2667 169.486 30.6163L168.622 32.7437C167.504 32.1114 166.379 31.7916 165.261 31.7916C164.472 31.7916 163.898 31.918 163.518 32.1709C163.145 32.4238 162.952 32.7586 162.952 33.1751C162.952 33.5917 163.168 33.8966 163.6 34.1049C164.032 34.3057 164.695 34.5066 165.582 34.7C166.506 34.9157 167.266 35.1388 167.854 35.3546C168.443 35.5777 168.949 35.9199 169.374 36.3959C169.799 36.872 170.007 37.5117 170.007 38.315C170.007 39.0068 169.814 39.6391 169.426 40.2118C169.039 40.7846 168.458 41.2383 167.683 41.5731C166.908 41.9078 165.969 42.0714 164.859 42.0714C163.898 42.0714 162.974 41.945 162.08 41.6846L162.073 41.6772Z" fill="black"/>
</g>
</g>
<defs>
<clipPath id="clip0_52_657">
<rect width="170" height="48" fill="white"/>
</clipPath>
</defs>
</svg>
